<?xml version="1.0"?>
<svg xmlns="http://www.w3.org/2000/svg" xmlns:xlink="http://www.w3.org/1999/xlink" xmlns:svgjs="http://svgjs.com/svgjs" version="1.1" width="512" height="512" x="0" y="0" viewBox="0 0 512 512" style="enable-background:new 0 0 512 512" xml:space="preserve" class=""><g>
<g xmlns="http://www.w3.org/2000/svg">
	<g>
		<path d="M277.332,0c-98.816,0-179.2,80.393-179.2,179.2s80.384,179.2,179.2,179.2s179.2-80.393,179.2-179.2S376.148,0,277.332,0z     M277.332,341.333c-89.404,0-162.133-72.73-162.133-162.133s72.73-162.133,162.133-162.133S439.466,89.796,439.466,179.2    S366.736,341.333,277.332,341.333z" fill="#ffffff" data-original="#000000" style="" class=""/>
	</g>
</g>
<g xmlns="http://www.w3.org/2000/svg">
	<g>
		<path d="M308.88,181.222c-0.785-5.896-4.378-11.145-9.626-14.046c-5.231-2.901-11.315-3.149-16.674-0.7v0.009    c-13.815,6.298-30.319,0.93-37.572-12.262c-10.769-19.61-28.911-24.311-29.21-24.371c-23.305-7.236-33.69-12.339-38.255-15.241    c1.126-0.375,2.543-0.794,4.309-1.203c5.982-1.417,12.433-1.98,19.183-1.613c34.185,1.579,51.456-22.665,55.868-35.814    c6.221-18.56-10.556-51.712-18.057-65.101l-3.285-5.871l-6.477,1.835c-61.372,17.314-109.372,66.159-125.278,127.479l-1.604,6.161    l5.444,3.285c15.744,9.523,31.616,8.909,34.867,8.653c8.482,0.068,15.095,2.594,20.215,7.74    c11.494,11.537,12.646,33.314,12.612,42.138c-0.034,8.986,0.785,17.041,2.517,24.636c10.351,45.295,40.969,49.152,51.089,49.152    c1.015,0,1.826-0.034,2.389-0.085c14.404-0.119,27.332-8.107,33.801-20.932c3.661-7.253,9.353-13.525,16.444-18.133    C309.375,218.889,310.612,194.278,308.88,181.222z M272.289,222.626c-9.617,6.246-17.357,14.805-22.374,24.755    c-3.601,7.125-10.829,11.554-18.876,11.554l-1.203,0.085c-1.058,0.179-26.385,3.285-35.328-35.891    c-1.442-6.306-2.125-13.099-2.091-20.77c0.051-13.602-2.159-38.75-17.587-54.246c-8.439-8.465-19.422-12.757-32.657-12.757    l-0.888,0.051c-0.111,0.017-9.011,0.802-19.115-3.362c15.36-50.219,54.775-90.3,105.02-106.795    c9.088,17.604,16.162,37.427,13.517,45.295c-0.077,0.256-8.977,25.847-38.81,24.201c-8.38-0.393-16.427,0.265-23.97,2.048    c-4.958,1.169-20.062,4.727-20.471,16.418c-0.35,10.01,8.439,19.012,53.675,33.05c0.478,0.128,11.861,3.319,18.918,16.179    c11.52,20.992,37.709,29.602,59.622,19.558c0.41-0.171,0.862-0.145,1.323,0.111c0.265,0.137,0.862,0.555,0.973,1.357    C294.109,199.578,287.487,212.753,272.289,222.626z" fill="#ffffff" data-original="#000000" style="" class=""/>
	</g>
</g>
<g xmlns="http://www.w3.org/2000/svg">
	<g>
		<path d="M450.38,132.062l-1.946-7.279l-7.458,1.016c-36.958,5.052-54.323-1.314-60.075-4.301    c-8.943-4.625-18.756-5.069-26.889-1.161c-11.136,5.299-23.603,18.901-19.721,54.025c0.179,1.067,4.642,26.3,32.435,40.32    c8.61,4.344,13.158,13.807,11.059,23.014c-6.332,27.793-0.154,50.509,17.886,65.698l6.17,5.197l5.538-5.862    c31.693-33.579,49.152-77.559,49.152-123.853C456.532,163.081,454.459,147.328,450.38,132.062z M400.895,284.382    c-8.354-10.641-10.53-25.02-6.451-42.889c3.84-16.879-4.386-34.167-20.019-42.052c-19.797-9.993-23.151-27.213-23.211-27.409    c-1.51-13.636-0.964-31.002,10.163-36.301c1.357-0.648,2.893-0.973,4.514-0.973c2.287,0,4.753,0.64,7.177,1.894    c8.346,4.318,27.238,10.658,62.566,6.972c2.543,11.588,3.831,23.398,3.831,35.251    C439.466,217.805,425.829,254.942,400.895,284.382z" fill="#ffffff" data-original="#000000" style="" class=""/>
	</g>
</g>
<g xmlns="http://www.w3.org/2000/svg">
	<g>
		<path d="M391.85,41.378c-12.834-10.675-27.11-19.507-42.453-26.249l-4.838-2.133l-7.748,6.468    c-9.02,7.057-36.489,28.518-23.851,52.898l1.135,1.69c4.855,5.572,15.232,12.868,28.134,12.868c6.212,0,13.005-1.698,20.036-6.093    c4.48-2.79,8.474-6.63,12.561-12.075c2.116-2.816,6.127-7.168,12.655-11.614l13.833-7.885L391.85,41.378z M361.189,58.496    c-2.79,3.721-5.316,6.212-7.945,7.851c-12.902,8.038-22.886-0.154-25.626-2.842c-1.621-3.686-3.183-12.638,19.661-30.575    c8.644,4.139,16.896,9.028,24.644,14.601C366.727,51.797,363.306,55.689,361.189,58.496z" fill="#ffffff" data-original="#000000" style="" class=""/>
	</g>
</g>
<g xmlns="http://www.w3.org/2000/svg">
	<g>
		<path d="M324.436,341.555c-3.593-7.509-6.187-16.196-7.706-25.813c-3.046-19.268-19.627-33.254-39.407-33.254    c-30.507,0-55.347,24.687-55.612,55.125l-1.297,11.674l6.903,1.997c16.307,4.727,33.126,7.117,50.014,7.117    c13.833,0,27.75-1.63,41.37-4.855l10.308-2.441L324.436,341.555z M238.804,336.683c0.751-20.599,17.741-37.129,38.519-37.129    c11.153,0,20.847,8.107,22.545,18.859c1.152,7.279,2.85,14.148,5.077,20.54C282.887,342.767,260.411,341.965,238.804,336.683z" fill="#ffffff" data-original="#000000" style="" class=""/>
	</g>
</g>
<g xmlns="http://www.w3.org/2000/svg">
	<g>
		<path d="M445.925,327.219c-3.089-3.567-8.482-3.959-12.041-0.87c-37.623,32.538-76.527,66.185-156.553,66.185    c-117.632,0-213.333-95.701-213.333-213.333c0-54.101,16.99-102.332,49.126-139.486c3.081-3.567,2.688-8.96-0.87-12.032    c-3.558-3.089-8.96-2.688-12.041,0.87C65.356,68.847,46.932,120.943,46.932,179.2c0,127.044,103.356,230.4,230.4,230.4    c86.383,0,127.727-35.755,167.723-70.349C448.613,336.179,449.014,330.786,445.925,327.219z" fill="#ffffff" data-original="#000000" style="" class=""/>
	</g>
</g>
<g xmlns="http://www.w3.org/2000/svg">
	<g>
		<path d="M129.765,45.167L95.632,11.034c-3.337-3.336-8.73-3.336-12.066,0c-3.336,3.337-3.336,8.73,0,12.066l34.133,34.133    c1.664,1.664,3.849,2.5,6.033,2.5c2.185,0,4.369-0.836,6.033-2.5C133.102,53.897,133.102,48.503,129.765,45.167z" fill="#ffffff" data-original="#000000" style="" class=""/>
	</g>
</g>
<g xmlns="http://www.w3.org/2000/svg">
	<g>
		<path d="M462.565,343.834L428.432,309.7c-3.337-3.336-8.73-3.337-12.066,0c-3.337,3.337-3.337,8.73,0,12.066l34.133,34.133    c1.664,1.664,3.849,2.5,6.033,2.5c2.185,0,4.369-0.836,6.033-2.5C465.902,352.563,465.902,347.17,462.565,343.834z" fill="#ffffff" data-original="#000000" style="" class=""/>
	</g>
</g>
<g xmlns="http://www.w3.org/2000/svg">
	<g>
		<path d="M354.132,460.8h-153.6c-4.71,0-8.533,3.814-8.533,8.533v34.133c0,4.719,3.823,8.533,8.533,8.533h153.6    c4.71,0,8.533-3.814,8.533-8.533v-34.133C362.666,464.614,358.843,460.8,354.132,460.8z M345.599,494.933H209.066v-17.067h136.533    V494.933z" fill="#ffffff" data-original="#000000" style="" class=""/>
	</g>
</g>
<g xmlns="http://www.w3.org/2000/svg">
	<g>
		<path d="M345.599,460.8c-32.939,0-59.733-26.803-59.733-59.733c0-4.719-3.823-8.533-8.533-8.533c-4.71,0-8.533,3.814-8.533,8.533    c0,32.93-26.795,59.733-59.733,59.733c-4.71,0-8.533,3.814-8.533,8.533s3.823,8.533,8.533,8.533h136.533    c4.71,0,8.533-3.814,8.533-8.533S350.309,460.8,345.599,460.8z M257.287,460.8c8.269-6.682,15.121-15.053,20.045-24.568    c4.924,9.515,11.776,17.886,20.045,24.568H257.287z" fill="#ffffff" data-original="#000000" style="" class=""/>
	</g>
</g>
<g xmlns="http://www.w3.org/2000/svg">
</g>
<g xmlns="http://www.w3.org/2000/svg">
</g>
<g xmlns="http://www.w3.org/2000/svg">
</g>
<g xmlns="http://www.w3.org/2000/svg">
</g>
<g xmlns="http://www.w3.org/2000/svg">
</g>
<g xmlns="http://www.w3.org/2000/svg">
</g>
<g xmlns="http://www.w3.org/2000/svg">
</g>
<g xmlns="http://www.w3.org/2000/svg">
</g>
<g xmlns="http://www.w3.org/2000/svg">
</g>
<g xmlns="http://www.w3.org/2000/svg">
</g>
<g xmlns="http://www.w3.org/2000/svg">
</g>
<g xmlns="http://www.w3.org/2000/svg">
</g>
<g xmlns="http://www.w3.org/2000/svg">
</g>
<g xmlns="http://www.w3.org/2000/svg">
</g>
<g xmlns="http://www.w3.org/2000/svg">
</g>
</g></svg>
