<?xml version="1.0"?>
<svg xmlns="http://www.w3.org/2000/svg" xmlns:xlink="http://www.w3.org/1999/xlink" xmlns:svgjs="http://svgjs.com/svgjs" version="1.1" width="512" height="512" x="0" y="0" viewBox="0 0 512 512" style="enable-background:new 0 0 512 512" xml:space="preserve" class=""><g><path xmlns="http://www.w3.org/2000/svg" d="m287.504 356c98.149 0 178-79.851 178-178-9.778-236.141-346.258-236.073-356 .001 0 98.149 79.851 177.999 178 177.999zm0-316c76.094 0 138 61.907 138 138-7.58 183.076-268.448 183.023-276-.001 0-76.092 61.907-137.999 138-137.999zm188.626 312.533c-23.819 25.731-52.063 45.999-83.947 60.239-26.941 12.033-55.345 19.223-84.679 21.464v37.764h59c26.536 1.056 26.516 38.953 0 40h-160c-26.536-1.056-26.516-38.953 0-40h61v-37.77c-211.083-16.011-312.965-269.893-171.533-427.569 7.365-8.23 20.009-8.93 28.239-1.562 8.23 7.367 8.93 20.011 1.563 28.241-124.606 138.161-24.432 362.22 161.734 361.659 60.248.001 118.301-25.382 159.27-69.639 7.503-8.106 20.158-8.595 28.263-1.09 8.106 7.503 8.594 20.157 1.09 28.263zm-104.295-127.561c-10.196 3.487-21.828-2.063-25.303-12.641-4.363-13.073-12.407-26.482-24.42-40.654l-40.931 40.932c14.173 12.014 27.582 20.058 40.655 24.42 10.478 3.497 16.137 14.825 12.641 25.302-3.474 10.577-15.107 16.128-25.303 12.641-18.756-6.259-37.315-17.457-56.346-34.01l-4.18 4.18c-7.811 7.811-20.474 7.811-28.285 0-7.81-7.811-7.81-20.474 0-28.284l4.2-4.2c-16.618-19.208-27.842-38.152-34.09-57.516-3.393-10.512 2.379-21.784 12.892-25.176 10.513-3.393 21.783 2.381 25.175 12.892 4.36 13.51 12.392 27.177 24.386 41.438l40.877-40.877c-14.262-11.994-27.929-20.027-41.438-24.386-10.512-3.392-16.284-14.663-12.892-25.175s14.664-16.283 25.175-12.892c19.364 6.248 38.308 17.472 57.517 34.091l4.199-4.199c7.811-7.811 20.475-7.811 28.285 0s7.81 20.474 0 28.284l-4.181 4.181c16.552 19.03 27.75 37.589 34.01 56.346 3.494 10.478-2.165 21.806-12.643 25.303z" fill="#17a2b8" data-original="#000000" style="" class=""/></g></svg>
