<?xml version="1.0"?>
<svg xmlns="http://www.w3.org/2000/svg" xmlns:xlink="http://www.w3.org/1999/xlink" xmlns:svgjs="http://svgjs.com/svgjs" version="1.1" width="512" height="512" x="0" y="0" viewBox="0 0 480.003 480.003" style="enable-background:new 0 0 512 512" xml:space="preserve" class=""><g>
<g xmlns="http://www.w3.org/2000/svg">
	<g>
		<g>
			<path d="M410.176,267.923l-61.776-95.48c11.138-6.574,14.906-20.89,8.448-32.096l68.584-12.472     c4.348-0.791,7.231-4.956,6.44-9.304s-4.956-7.231-9.304-6.44l-62.8,11.416l49.888-49.888c3.07-3.178,2.982-8.243-0.196-11.312     c-3.1-2.994-8.015-2.994-11.116,0l-58.24,58.24L367.76,9.947c0.051-0.39,0.069-0.783,0.056-1.176     c0.091-0.574,0.117-1.156,0.08-1.736c-0.099-0.57-0.266-1.125-0.496-1.656c-0.08-0.387-0.193-0.767-0.336-1.136     c0-0.064-0.096-0.096-0.136-0.16c-0.321-0.501-0.7-0.963-1.128-1.376c-0.269-0.352-0.566-0.681-0.888-0.984     c-0.375-0.245-0.771-0.457-1.184-0.632c-0.503-0.324-1.039-0.592-1.6-0.8c-0.072,0-0.12-0.072-0.192-0.088     c-0.401-0.051-0.805-0.069-1.208-0.056c-1.137-0.246-2.325-0.099-3.368,0.416c-0.384,0.084-0.761,0.196-1.128,0.336l-26.28,14     L303.68,0.939c-2.35-1.252-5.17-1.252-7.52,0l-26.232,14L243.712,0.947c-2.355-1.257-5.181-1.257-7.536,0l-26.208,13.992     L183.744,0.947c-2.355-1.257-5.181-1.257-7.536,0l-26.216,13.992L123.768,0.947h-0.048c-1.919-0.836-4.055-1.035-6.096-0.568     c-0.12,0-0.208,0.136-0.32,0.176c-0.871,0.297-1.683,0.744-2.4,1.32c-0.529,0.49-0.989,1.05-1.368,1.664     c-0.21,0.224-0.405,0.462-0.584,0.712c-0.494,0.928-0.799,1.945-0.896,2.992c-0.095,1.043,0.013,2.095,0.32,3.096l36.744,117.664     H144c-13.215-0.044-23.963,10.634-24.007,23.849c-0.028,8.429,4.381,16.251,11.607,20.591l-61.776,95.48     c-14.26,22.001-21.841,47.662-21.824,73.88v2.2c0.084,75.076,60.924,135.916,136,136h112c75.076-0.084,135.916-60.924,136-136     v-2.2C432.017,315.585,424.436,289.923,410.176,267.923L410.176,267.923z M133.464,24.251l12.76,6.808     c2.35,1.264,5.178,1.264,7.528,0L180,17.067l26.224,13.992c2.353,1.254,5.175,1.254,7.528,0l26.216-13.992l26.224,13.992     c2.35,1.264,5.178,1.264,7.528,0l26.232-13.992l26.272,14c2.35,1.252,5.17,1.252,7.52,0l14.152-7.536l-26.144,104.472H165.88     L133.464,24.251z M144,144.003h192c4.418,0,8,3.582,8,8s-3.582,8-8,8H144c-4.418,0-8-3.582-8-8S139.582,144.003,144,144.003z      M416,344.003c-0.075,66.243-53.757,119.925-120,120H184c-66.243-0.075-119.925-53.757-120-120v-2.2     c-0.014-23.131,6.672-45.771,19.248-65.184l65.104-100.616h183.296l65.104,100.616c12.576,19.413,19.262,42.053,19.248,65.184     V344.003z" fill="#ffffff" data-original="#000000" style="" class=""/>
			<path d="M240,256.003c17.673,0,32,14.327,32,32h16c-0.043-23.397-16.934-43.361-40-47.28v-16.72h-16v16.72     c-26.112,4.572-43.575,29.446-39.003,55.559C197,319.145,216.789,335.868,240,336.003c17.673,0,32,14.327,32,32     c0,17.673-14.327,32-32,32c-17.673,0-32-14.327-32-32h-16c0.043,23.397,16.934,43.361,40,47.28v16.72h16v-16.72     c26.112-4.572,43.575-29.446,39.003-55.559C283,336.861,263.211,320.137,240,320.003c-17.673,0-32-14.327-32-32     C208,270.329,222.327,256.003,240,256.003z" fill="#ffffff" data-original="#000000" style="" class=""/>
		</g>
	</g>
</g>
<g xmlns="http://www.w3.org/2000/svg">
</g>
<g xmlns="http://www.w3.org/2000/svg">
</g>
<g xmlns="http://www.w3.org/2000/svg">
</g>
<g xmlns="http://www.w3.org/2000/svg">
</g>
<g xmlns="http://www.w3.org/2000/svg">
</g>
<g xmlns="http://www.w3.org/2000/svg">
</g>
<g xmlns="http://www.w3.org/2000/svg">
</g>
<g xmlns="http://www.w3.org/2000/svg">
</g>
<g xmlns="http://www.w3.org/2000/svg">
</g>
<g xmlns="http://www.w3.org/2000/svg">
</g>
<g xmlns="http://www.w3.org/2000/svg">
</g>
<g xmlns="http://www.w3.org/2000/svg">
</g>
<g xmlns="http://www.w3.org/2000/svg">
</g>
<g xmlns="http://www.w3.org/2000/svg">
</g>
<g xmlns="http://www.w3.org/2000/svg">
</g>
</g></svg>
