<svg id="Layer_1" data-name="Layer 1" xmlns="http://www.w3.org/2000/svg" viewBox="0 0 503.87 503.61"><defs><style>.cls-1{fill:#fff;}.cls-2{fill:#98daf0;}.cls-3{fill:#daf1fa;}.cls-4{fill:#0099cd;}</style></defs><title>f-general-info</title><g id="Page-1"><g id="_043---Passed-Assignment" data-name="043---Passed-Assignment"><path id="Shape" class="cls-1" d="M297.69,399.57a100.56,100.56,0,0,0,64,93.76,16.83,16.83,0,0,1-13.6,7H29.1a16.84,16.84,0,0,1-16.79-16.78V30.26A16.85,16.85,0,0,1,29.1,13.47H272.51l92.33,92.33V304.64a100.59,100.59,0,0,0-67.15,94.93Z" transform="translate(-3.92 -5.08)"/><path id="Shape-2" data-name="Shape" class="cls-2" d="M364.84,304.64V105.8L272.51,13.47H247.33l92.33,92.33V304.64a100.72,100.72,0,0,0-3.19,188.69,16.85,16.85,0,0,1-13.6,7h25.18a16.83,16.83,0,0,0,13.6-7,100.72,100.72,0,0,1,3.19-188.69Z" transform="translate(-3.92 -5.08)"/><path id="Shape-3" data-name="Shape" class="cls-3" d="M272.51,15V89A16.79,16.79,0,0,0,289.3,105.8h74Z" transform="translate(-3.92 -5.08)"/><path id="Shape-4" data-name="Shape" class="cls-2" d="M272.51,15V40.16l65.64,65.64h25.18Z" transform="translate(-3.92 -5.08)"/><path id="Shape-5" data-name="Shape" class="cls-3" d="M499.13,399.57A100.72,100.72,0,0,1,398.41,500.29a99,99,0,0,1-36.76-7,100.72,100.72,0,0,1,3.19-188.69,99.23,99.23,0,0,1,33.57-5.79A100.72,100.72,0,0,1,499.13,399.57Z" transform="translate(-3.92 -5.08)"/><path id="Shape-6" data-name="Shape" class="cls-2" d="M398.41,298.85a100,100,0,0,0-12.59.84,100.63,100.63,0,0,1,0,199.7,100.72,100.72,0,1,0,12.59-200.54Z" transform="translate(-3.92 -5.08)"/><path id="Shape-7" data-name="Shape" class="cls-3" d="M37.49,483.51V30.26A16.85,16.85,0,0,1,54.28,13.47H29.1A16.85,16.85,0,0,0,12.31,30.26V483.51A16.84,16.84,0,0,0,29.1,500.29H54.28A16.84,16.84,0,0,1,37.49,483.51Z" transform="translate(-3.92 -5.08)"/><path id="Rectangle-path" class="cls-3" d="M3.92,30.26H20.71V97.41H3.92Z" transform="translate(-3.92 -5.08)"/><path id="Shape-8" data-name="Shape" class="cls-4" d="M12.48,72.23a8.4,8.4,0,1,1-.08-16.79h.08a8.4,8.4,0,0,1,0,16.79Z" transform="translate(-3.92 -5.08)"/><path id="Shape-9" data-name="Shape" class="cls-4" d="M275,170.49a8.39,8.39,0,0,0,11.87,0L312,145.31a8.39,8.39,0,0,0-11.87-11.87L280.9,152.69l-2.46-2.46a8.39,8.39,0,0,0-11.87,11.87Z" transform="translate(-3.92 -5.08)"/><path id="Shape-10" data-name="Shape" class="cls-4" d="M54.28,164.55H222.15a8.39,8.39,0,0,0,0-16.78H54.28a8.39,8.39,0,0,0,0,16.78Z" transform="translate(-3.92 -5.08)"/><path id="Shape-11" data-name="Shape" class="cls-4" d="M266.57,212.46l8.4,8.39a8.39,8.39,0,0,0,11.87,0L312,195.67a8.39,8.39,0,0,0-11.87-11.87L280.9,203.05l-2.46-2.46a8.39,8.39,0,0,0-11.87,11.87Z" transform="translate(-3.92 -5.08)"/><path id="Shape-12" data-name="Shape" class="cls-4" d="M54.28,214.92H222.15a8.4,8.4,0,0,0,0-16.79H54.28a8.4,8.4,0,0,0,0,16.79Z" transform="translate(-3.92 -5.08)"/><path id="Shape-13" data-name="Shape" class="cls-4" d="M266.57,262.82l8.4,8.39a8.39,8.39,0,0,0,11.87,0L312,246a8.39,8.39,0,0,0-11.87-11.87L280.9,253.41,278.44,251a8.39,8.39,0,0,0-11.87,11.87Z" transform="translate(-3.92 -5.08)"/><path id="Shape-14" data-name="Shape" class="cls-4" d="M54.28,265.28H222.15a8.4,8.4,0,0,0,0-16.79H54.28a8.4,8.4,0,0,0,0,16.79Z" transform="translate(-3.92 -5.08)"/><path id="Shape-15" data-name="Shape" class="cls-4" d="M266.57,313.18l8.4,8.39a8.39,8.39,0,0,0,11.87,0L312,296.39a8.39,8.39,0,0,0-11.87-11.87L280.9,303.77l-2.46-2.46a8.39,8.39,0,0,0-11.87,11.87Z" transform="translate(-3.92 -5.08)"/><path id="Shape-16" data-name="Shape" class="cls-4" d="M433.5,352.79l-53,75.74-18.1-18.11a8.39,8.39,0,0,0-11.87,11.87l25.18,25.18a8.36,8.36,0,0,0,5.93,2.46h.73a8.41,8.41,0,0,0,6.15-3.55l58.75-83.93a8.39,8.39,0,1,0-13.75-9.62Z" transform="translate(-3.92 -5.08)"/><path id="Shape-17" data-name="Shape" class="cls-4" d="M54.28,315.64H222.15a8.4,8.4,0,0,0,0-16.79H54.28a8.4,8.4,0,0,0,0,16.79Z" transform="translate(-3.92 -5.08)"/><path id="Shape-18" data-name="Shape" class="cls-4" d="M139.09,370.64l-33.57,67.15a8.4,8.4,0,0,0,15,7.5l10.26-20.54H162.4l10.27,20.54a8.39,8.39,0,1,0,15-7.5l-33.57-67.15a8.75,8.75,0,0,0-15,0ZM139.2,408l7.41-14.8L154,408Z" transform="translate(-3.92 -5.08)"/><path id="Shape-19" data-name="Shape" class="cls-4" d="M213.75,416.36a8.4,8.4,0,0,0,8.4-8.4v-8.39h8.39a8.4,8.4,0,0,0,0-16.79h-8.39v-8.39a8.4,8.4,0,0,0-16.79,0v8.39H197a8.4,8.4,0,1,0,0,16.79h8.39V408A8.4,8.4,0,0,0,213.75,416.36Z" transform="translate(-3.92 -5.08)"/><path id="Shape-20" data-name="Shape" class="cls-4" d="M398.41,290.46a109,109,0,0,0-25.18,3V105.8a8.39,8.39,0,0,0-2.46-5.93L278.44,7.54a8.36,8.36,0,0,0-5.93-2.46H29.1A25.18,25.18,0,0,0,3.92,30.26a8.4,8.4,0,0,0,16.79,0,8.38,8.38,0,0,1,8.39-8.39h235V89a25.18,25.18,0,0,0,25.18,25.18h67.14V298.85a109,109,0,0,0-15.94,193H29.1a8.39,8.39,0,0,1-8.39-8.39V97.41a8.4,8.4,0,1,0-16.79,0v386.1A25.18,25.18,0,0,0,29.1,508.69h319a25.21,25.21,0,0,0,15.82-5.7,109.12,109.12,0,1,0,34.54-212.53ZM289.3,97.41a8.4,8.4,0,0,1-8.4-8.4V33.73l63.67,63.68ZM398.41,491.9a92.33,92.33,0,1,1,92.33-92.33A92.33,92.33,0,0,1,398.41,491.9Z" transform="translate(-3.92 -5.08)"/></g></g></svg>